<mxfile host="app.diagrams.net" modified="2020-12-09T23:51:47.387Z" agent="5.0 (Windows)" etag="vhxwDnV7aeYicgvnidea" version="13.10.9" type="github">
  <diagram name="Page-1" id="58cdce13-f638-feb5-8d6f-7d28b1aa9fa0">
    <mxGraphModel dx="1884" dy="204" grid="1" gridSize="10" guides="1" tooltips="1" connect="1" arrows="1" fold="1" page="1" pageScale="1" pageWidth="1100" pageHeight="850" background="#ffffff" math="0" shadow="0">
      <root>
        <mxCell id="0" />
        <mxCell id="1" parent="0" />
        <mxCell id="2a3bc250acf0617d-8" value="GUN_USAGE" style="shape=umlFrame;whiteSpace=wrap;html=1;rounded=1;shadow=0;comic=0;labelBackgroundColor=none;strokeWidth=1;fontFamily=Verdana;fontSize=12;align=center;width=100;height=45;" parent="1" vertex="1">
          <mxGeometry x="20" y="860" width="1060" height="740" as="geometry" />
        </mxCell>
        <mxCell id="Oku4U-mqQ0WQSHt2BnqS-3" value="Gun System Access" style="text;html=1;strokeColor=none;fillColor=none;align=center;verticalAlign=middle;whiteSpace=wrap;rounded=0;" vertex="1" parent="1">
          <mxGeometry x="195" y="950" width="90" height="20" as="geometry" />
        </mxCell>
        <mxCell id="Oku4U-mqQ0WQSHt2BnqS-5" value="" style="html=1;points=[];perimeter=orthogonalPerimeter;fillColor=#000000;strokeColor=none;rotation=90;" vertex="1" parent="1">
          <mxGeometry x="325" y="910" width="5" height="200" as="geometry" />
        </mxCell>
        <mxCell id="Oku4U-mqQ0WQSHt2BnqS-6" value="" style="endArrow=classicThin;endFill=1;endSize=12;html=1;strokeColor=#FF0000;" edge="1" parent="1">
          <mxGeometry width="160" relative="1" as="geometry">
            <mxPoint x="265" y="1013" as="sourcePoint" />
            <mxPoint x="265" y="1070" as="targetPoint" />
          </mxGeometry>
        </mxCell>
        <mxCell id="Oku4U-mqQ0WQSHt2BnqS-7" value="" style="endArrow=classicThin;endFill=1;endSize=12;html=1;strokeColor=#FF0000;" edge="1" parent="1">
          <mxGeometry width="160" relative="1" as="geometry">
            <mxPoint x="395" y="1013" as="sourcePoint" />
            <mxPoint x="395" y="1070" as="targetPoint" />
          </mxGeometry>
        </mxCell>
        <mxCell id="Oku4U-mqQ0WQSHt2BnqS-8" value="Information Update" style="rounded=1;whiteSpace=wrap;html=1;strokeColor=#FF0000;fillColor=#FFD966;" vertex="1" parent="1">
          <mxGeometry x="355" y="1070" width="120" height="60" as="geometry" />
        </mxCell>
        <mxCell id="Oku4U-mqQ0WQSHt2BnqS-10" style="edgeStyle=orthogonalEdgeStyle;rounded=0;orthogonalLoop=1;jettySize=auto;html=1;endArrow=classicThin;endFill=1;" edge="1" parent="1" source="Oku4U-mqQ0WQSHt2BnqS-9">
          <mxGeometry relative="1" as="geometry">
            <mxPoint x="265" y="1200" as="targetPoint" />
          </mxGeometry>
        </mxCell>
        <mxCell id="Oku4U-mqQ0WQSHt2BnqS-9" value="Lock state" style="rounded=1;whiteSpace=wrap;html=1;strokeColor=#FF0000;fillColor=#FFD966;" vertex="1" parent="1">
          <mxGeometry x="205" y="1070" width="120" height="60" as="geometry" />
        </mxCell>
        <mxCell id="Oku4U-mqQ0WQSHt2BnqS-12" style="edgeStyle=orthogonalEdgeStyle;rounded=0;orthogonalLoop=1;jettySize=auto;html=1;entryX=1;entryY=0.5;entryDx=0;entryDy=0;endArrow=classicThin;endFill=1;strokeColor=#FF0000;" edge="1" parent="1" source="Oku4U-mqQ0WQSHt2BnqS-11" target="Oku4U-mqQ0WQSHt2BnqS-9">
          <mxGeometry relative="1" as="geometry">
            <Array as="points">
              <mxPoint x="345" y="1225" />
              <mxPoint x="345" y="1100" />
            </Array>
          </mxGeometry>
        </mxCell>
        <mxCell id="Oku4U-mqQ0WQSHt2BnqS-15" value="lock on" style="edgeLabel;html=1;align=center;verticalAlign=middle;resizable=0;points=[];" vertex="1" connectable="0" parent="Oku4U-mqQ0WQSHt2BnqS-12">
          <mxGeometry x="-0.05" y="4" relative="1" as="geometry">
            <mxPoint x="-16" y="-15" as="offset" />
          </mxGeometry>
        </mxCell>
        <mxCell id="Oku4U-mqQ0WQSHt2BnqS-11" value="" style="rhombus;whiteSpace=wrap;html=1;" vertex="1" parent="1">
          <mxGeometry x="240" y="1200" width="50" height="50" as="geometry" />
        </mxCell>
        <mxCell id="Oku4U-mqQ0WQSHt2BnqS-13" value="" style="ellipse;html=1;shape=startState;fillColor=#000000;strokeColor=#ff0000;" vertex="1" parent="1">
          <mxGeometry x="212.5" y="890" width="55" height="50" as="geometry" />
        </mxCell>
        <mxCell id="Oku4U-mqQ0WQSHt2BnqS-14" value="" style="edgeStyle=orthogonalEdgeStyle;html=1;verticalAlign=bottom;endArrow=open;endSize=8;strokeColor=#ff0000;entryX=-0.3;entryY=0.438;entryDx=0;entryDy=0;entryPerimeter=0;" edge="1" source="Oku4U-mqQ0WQSHt2BnqS-13" parent="1" target="Oku4U-mqQ0WQSHt2BnqS-5">
          <mxGeometry relative="1" as="geometry">
            <mxPoint x="180" y="980" as="targetPoint" />
            <Array as="points">
              <mxPoint x="340" y="920" />
            </Array>
          </mxGeometry>
        </mxCell>
        <mxCell id="Oku4U-mqQ0WQSHt2BnqS-16" style="edgeStyle=orthogonalEdgeStyle;rounded=0;orthogonalLoop=1;jettySize=auto;html=1;entryX=1;entryY=0.25;entryDx=0;entryDy=0;endArrow=classicThin;endFill=1;strokeColor=#FF0000;" edge="1" parent="1" target="Oku4U-mqQ0WQSHt2BnqS-8">
          <mxGeometry relative="1" as="geometry">
            <mxPoint x="495" y="1120" as="sourcePoint" />
            <Array as="points">
              <mxPoint x="475" y="1120" />
              <mxPoint x="515" y="1120" />
              <mxPoint x="515" y="1085" />
            </Array>
          </mxGeometry>
        </mxCell>
        <mxCell id="Oku4U-mqQ0WQSHt2BnqS-17" value="" style="endArrow=classic;html=1;strokeColor=#FF0000;exitX=0.5;exitY=1;exitDx=0;exitDy=0;" edge="1" parent="1" source="Oku4U-mqQ0WQSHt2BnqS-11">
          <mxGeometry width="50" height="50" relative="1" as="geometry">
            <mxPoint x="255" y="1330" as="sourcePoint" />
            <mxPoint x="265" y="1340" as="targetPoint" />
          </mxGeometry>
        </mxCell>
        <mxCell id="Oku4U-mqQ0WQSHt2BnqS-18" value="lock off" style="edgeLabel;html=1;align=center;verticalAlign=middle;resizable=0;points=[];" vertex="1" connectable="0" parent="Oku4U-mqQ0WQSHt2BnqS-17">
          <mxGeometry x="-0.4444" y="-4" relative="1" as="geometry">
            <mxPoint as="offset" />
          </mxGeometry>
        </mxCell>
        <mxCell id="Oku4U-mqQ0WQSHt2BnqS-21" style="edgeStyle=orthogonalEdgeStyle;rounded=0;orthogonalLoop=1;jettySize=auto;html=1;endArrow=classicThin;endFill=1;strokeColor=#FF0000;entryX=0;entryY=0.5;entryDx=0;entryDy=0;" edge="1" parent="1" source="Oku4U-mqQ0WQSHt2BnqS-19" target="Oku4U-mqQ0WQSHt2BnqS-22">
          <mxGeometry relative="1" as="geometry">
            <mxPoint x="365" y="1370" as="targetPoint" />
            <Array as="points" />
          </mxGeometry>
        </mxCell>
        <mxCell id="Oku4U-mqQ0WQSHt2BnqS-24" style="edgeStyle=orthogonalEdgeStyle;rounded=0;orthogonalLoop=1;jettySize=auto;html=1;endArrow=classicThin;endFill=1;strokeColor=#FF0000;" edge="1" parent="1" source="Oku4U-mqQ0WQSHt2BnqS-19">
          <mxGeometry relative="1" as="geometry">
            <mxPoint x="253" y="1213" as="targetPoint" />
            <Array as="points">
              <mxPoint x="265" y="1470" />
              <mxPoint x="165" y="1470" />
              <mxPoint x="165" y="1180" />
              <mxPoint x="235" y="1180" />
              <mxPoint x="235" y="1213" />
            </Array>
          </mxGeometry>
        </mxCell>
        <mxCell id="Oku4U-mqQ0WQSHt2BnqS-29" value="else" style="edgeLabel;html=1;align=center;verticalAlign=middle;resizable=0;points=[];" vertex="1" connectable="0" parent="Oku4U-mqQ0WQSHt2BnqS-24">
          <mxGeometry x="-0.4486" y="-2" relative="1" as="geometry">
            <mxPoint as="offset" />
          </mxGeometry>
        </mxCell>
        <mxCell id="Oku4U-mqQ0WQSHt2BnqS-27" style="edgeStyle=orthogonalEdgeStyle;rounded=0;orthogonalLoop=1;jettySize=auto;html=1;exitX=1;exitY=1;exitDx=0;exitDy=0;endArrow=classicThin;endFill=1;strokeColor=#FF0000;entryX=0.5;entryY=1;entryDx=0;entryDy=0;" edge="1" parent="1" source="Oku4U-mqQ0WQSHt2BnqS-19" target="Oku4U-mqQ0WQSHt2BnqS-22">
          <mxGeometry relative="1" as="geometry">
            <mxPoint x="425" y="1440" as="targetPoint" />
            <Array as="points">
              <mxPoint x="280" y="1440" />
              <mxPoint x="455" y="1440" />
            </Array>
          </mxGeometry>
        </mxCell>
        <mxCell id="Oku4U-mqQ0WQSHt2BnqS-28" value="&lt;div&gt;MagazineLevelSensor&lt;/div&gt;&lt;div&gt;has changed&lt;br&gt;&lt;/div&gt;" style="edgeLabel;html=1;align=center;verticalAlign=middle;resizable=0;points=[];" vertex="1" connectable="0" parent="Oku4U-mqQ0WQSHt2BnqS-27">
          <mxGeometry x="0.32" y="-2" relative="1" as="geometry">
            <mxPoint as="offset" />
          </mxGeometry>
        </mxCell>
        <mxCell id="Oku4U-mqQ0WQSHt2BnqS-19" value="" style="rhombus;whiteSpace=wrap;html=1;" vertex="1" parent="1">
          <mxGeometry x="235" y="1340" width="60" height="60" as="geometry" />
        </mxCell>
        <mxCell id="Oku4U-mqQ0WQSHt2BnqS-30" style="edgeStyle=orthogonalEdgeStyle;rounded=0;orthogonalLoop=1;jettySize=auto;html=1;endArrow=classicThin;endFill=1;strokeColor=#FF0000;entryX=0;entryY=0.5;entryDx=0;entryDy=0;" edge="1" parent="1" source="Oku4U-mqQ0WQSHt2BnqS-22" target="Oku4U-mqQ0WQSHt2BnqS-31">
          <mxGeometry relative="1" as="geometry">
            <mxPoint x="595" y="1370" as="targetPoint" />
          </mxGeometry>
        </mxCell>
        <mxCell id="Oku4U-mqQ0WQSHt2BnqS-22" value="&lt;div&gt;Radio Module &lt;br&gt;&lt;/div&gt;&lt;div&gt;send Message&lt;br&gt;&lt;/div&gt;" style="rounded=1;whiteSpace=wrap;html=1;strokeColor=#FF0000;fillColor=#FFD966;" vertex="1" parent="1">
          <mxGeometry x="395" y="1340" width="120" height="60" as="geometry" />
        </mxCell>
        <mxCell id="Oku4U-mqQ0WQSHt2BnqS-23" value="Radio Button pressed" style="text;html=1;strokeColor=none;fillColor=none;align=center;verticalAlign=middle;whiteSpace=wrap;rounded=0;" vertex="1" parent="1">
          <mxGeometry x="308" y="1340" width="77" height="20" as="geometry" />
        </mxCell>
        <mxCell id="Oku4U-mqQ0WQSHt2BnqS-32" style="edgeStyle=orthogonalEdgeStyle;rounded=0;orthogonalLoop=1;jettySize=auto;html=1;endArrow=classicThin;endFill=1;strokeColor=#FF0000;entryX=0.5;entryY=0;entryDx=0;entryDy=0;" edge="1" parent="1" source="Oku4U-mqQ0WQSHt2BnqS-31" target="Oku4U-mqQ0WQSHt2BnqS-33">
          <mxGeometry relative="1" as="geometry">
            <mxPoint x="855" y="1440" as="targetPoint" />
            <Array as="points">
              <mxPoint x="875" y="1370" />
            </Array>
          </mxGeometry>
        </mxCell>
        <mxCell id="Oku4U-mqQ0WQSHt2BnqS-31" value="&lt;div&gt;Distributor recevive &lt;br&gt;&lt;/div&gt;&lt;div&gt;message&lt;br&gt;&lt;/div&gt;" style="rounded=1;whiteSpace=wrap;html=1;strokeColor=#FF0000;fillColor=#FFD966;" vertex="1" parent="1">
          <mxGeometry x="655" y="1340" width="120" height="60" as="geometry" />
        </mxCell>
        <mxCell id="Oku4U-mqQ0WQSHt2BnqS-35" style="edgeStyle=orthogonalEdgeStyle;rounded=0;orthogonalLoop=1;jettySize=auto;html=1;endArrow=classicThin;endFill=1;strokeColor=#FF0000;" edge="1" parent="1" source="Oku4U-mqQ0WQSHt2BnqS-33" target="Oku4U-mqQ0WQSHt2BnqS-34">
          <mxGeometry relative="1" as="geometry" />
        </mxCell>
        <mxCell id="Oku4U-mqQ0WQSHt2BnqS-33" value="Inform Backup team" style="rounded=1;whiteSpace=wrap;html=1;strokeColor=#FF0000;fillColor=#FFD966;" vertex="1" parent="1">
          <mxGeometry x="815" y="1400" width="120" height="50" as="geometry" />
        </mxCell>
        <mxCell id="Oku4U-mqQ0WQSHt2BnqS-37" style="edgeStyle=orthogonalEdgeStyle;rounded=0;orthogonalLoop=1;jettySize=auto;html=1;entryX=0.5;entryY=0;entryDx=0;entryDy=0;endArrow=classicThin;endFill=1;strokeColor=#FF0000;" edge="1" parent="1" source="Oku4U-mqQ0WQSHt2BnqS-34" target="Oku4U-mqQ0WQSHt2BnqS-36">
          <mxGeometry relative="1" as="geometry" />
        </mxCell>
        <mxCell id="Oku4U-mqQ0WQSHt2BnqS-34" value="" style="html=1;points=[];perimeter=orthogonalPerimeter;fillColor=#000000;strokeColor=none;rotation=90;" vertex="1" parent="1">
          <mxGeometry x="872.5" y="1390" width="5" height="200" as="geometry" />
        </mxCell>
        <mxCell id="Oku4U-mqQ0WQSHt2BnqS-36" value="" style="ellipse;html=1;shape=endState;fillColor=#000000;strokeColor=#ff0000;" vertex="1" parent="1">
          <mxGeometry x="860" y="1520" width="30" height="30" as="geometry" />
        </mxCell>
      </root>
    </mxGraphModel>
  </diagram>
</mxfile>
